{
	"asset":{
		"generator":"Khronos glTF Blender I/O v5.0.21",
		"version":"2.0"
	},
	"extensionsUsed":[
		"KHR_materials_clearcoat",
		"KHR_materials_specular",
		"KHR_materials_ior"
	],
	"scene":0,
	"scenes":[
		{
			"name":"Scene",
			"nodes":[
				0
			]
		}
	],
	"nodes":[
		{
			"mesh":0,
			"name":"guy",
			"translation":[
				-0.035070452839136124,
				1.6648364067077637,
				0
			]
		}
	],
	"materials":[
		{
			"doubleSided":true,
			"extensions":{
				"KHR_materials_specular":{
					"specularFactor":0
				},
				"KHR_materials_ior":{
					"ior":1.4500000476837158
				}
			},
			"name":"coat.001",
			"pbrMetallicRoughness":{
				"baseColorTexture":{
					"index":0
				},
				"metallicFactor":0
			}
		},
		{
			"doubleSided":true,
			"extensions":{
				"KHR_materials_clearcoat":{
					"clearcoatRoughnessFactor":0
				},
				"KHR_materials_specular":{
					"specularFactor":0
				},
				"KHR_materials_ior":{
					"ior":1.4500000476837158
				}
			},
			"name":"coat inside.001",
			"pbrMetallicRoughness":{
				"baseColorFactor":[
					0.8000000715255737,
					0.5867699384689331,
					0,
					1
				],
				"metallicFactor":0
			}
		},
		{
			"doubleSided":true,
			"extensions":{
				"KHR_materials_clearcoat":{
					"clearcoatRoughnessFactor":0
				},
				"KHR_materials_specular":{
					"specularFactor":0
				},
				"KHR_materials_ior":{
					"ior":1.4500000476837158
				}
			},
			"name":"skin.001",
			"pbrMetallicRoughness":{
				"baseColorFactor":[
					0.8000000715255737,
					0.5568842887878418,
					0.4034734070301056,
					1
				],
				"metallicFactor":0
			}
		},
		{
			"doubleSided":true,
			"extensions":{
				"KHR_materials_clearcoat":{
					"clearcoatRoughnessFactor":0
				},
				"KHR_materials_specular":{
					"specularFactor":0
				},
				"KHR_materials_ior":{
					"ior":1.4500000476837158
				}
			},
			"name":"sock.002",
			"pbrMetallicRoughness":{
				"baseColorFactor":[
					0.018848441541194916,
					0.018848441541194916,
					0.018848441541194916,
					1
				],
				"metallicFactor":0
			}
		},
		{
			"doubleSided":true,
			"extensions":{
				"KHR_materials_clearcoat":{
					"clearcoatRoughnessFactor":0
				},
				"KHR_materials_specular":{
					"specularFactor":0
				},
				"KHR_materials_ior":{
					"ior":1.4500000476837158
				}
			},
			"name":"sock.003",
			"pbrMetallicRoughness":{
				"baseColorFactor":[
					0.018848441541194916,
					0.018848441541194916,
					0.018848441541194916,
					1
				],
				"metallicFactor":0
			}
		},
		{
			"doubleSided":true,
			"name":"button2.001",
			"pbrMetallicRoughness":{
				"baseColorFactor":[
					0.8007664680480957,
					0,
					0.17968136072158813,
					1
				],
				"metallicFactor":0,
				"roughnessFactor":0.5
			}
		},
		{
			"doubleSided":true,
			"name":"buttonbig.001",
			"pbrMetallicRoughness":{
				"baseColorFactor":[
					0.8000000715255737,
					0.5297220349311829,
					0,
					1
				],
				"metallicFactor":0,
				"roughnessFactor":0.5
			}
		},
		{
			"doubleSided":true,
			"name":"hat.001",
			"pbrMetallicRoughness":{
				"baseColorFactor":[
					0.014115134254097939,
					0.018588459119200706,
					0.008250461891293526,
					1
				],
				"metallicFactor":0,
				"roughnessFactor":0.5
			}
		},
		{
			"doubleSided":true,
			"name":"hair.002",
			"pbrMetallicRoughness":{
				"baseColorFactor":[
					0.37434351444244385,
					0.37434351444244385,
					0.37434351444244385,
					1
				],
				"metallicFactor":0,
				"roughnessFactor":0.5
			}
		}
	],
	"meshes":[
		{
			"name":"Cube.025",
			"primitives":[
				{
					"attributes":{
						"POSITION":0,
						"NORMAL":1,
						"TEXCOORD_0":2
					},
					"indices":3,
					"material":0
				},
				{
					"attributes":{
						"POSITION":4,
						"NORMAL":5,
						"TEXCOORD_0":6
					},
					"indices":7,
					"material":1
				},
				{
					"attributes":{
						"POSITION":8,
						"NORMAL":9,
						"TEXCOORD_0":10
					},
					"indices":11,
					"material":2
				},
				{
					"attributes":{
						"POSITION":12,
						"NORMAL":13,
						"TEXCOORD_0":14
					},
					"indices":15,
					"material":3
				},
				{
					"attributes":{
						"POSITION":16,
						"NORMAL":17,
						"TEXCOORD_0":18
					},
					"indices":15,
					"material":4
				},
				{
					"attributes":{
						"POSITION":19,
						"NORMAL":20,
						"TEXCOORD_0":21
					},
					"indices":22,
					"material":5
				},
				{
					"attributes":{
						"POSITION":23,
						"NORMAL":24,
						"TEXCOORD_0":25
					},
					"indices":26,
					"material":6
				},
				{
					"attributes":{
						"POSITION":27,
						"NORMAL":28,
						"TEXCOORD_0":29
					},
					"indices":30,
					"material":7
				},
				{
					"attributes":{
						"POSITION":31,
						"NORMAL":32,
						"TEXCOORD_0":33
					},
					"indices":34,
					"material":8
				}
			]
		}
	],
	"textures":[
		{
			"sampler":0,
			"source":0
		}
	],
	"images":[
		{
			"mimeType":"image/png",
			"name":"Untitled",
			"uri":"Untitled.png"
		}
	],
	"accessors":[
		{
			"bufferView":0,
			"componentType":5126,
			"count":75,
			"max":[
				0.5474421381950378,
				0.9746698141098022,
				0.8059260845184326
			],
			"min":[
				-0.574497401714325,
				-0.6793243885040283,
				-0.8059260845184326
			],
			"type":"VEC3"
		},
		{
			"bufferView":1,
			"componentType":5126,
			"count":75,
			"type":"VEC3"
		},
		{
			"bufferView":2,
			"componentType":5126,
			"count":75,
			"type":"VEC2"
		},
		{
			"bufferView":3,
			"componentType":5123,
			"count":312,
			"type":"SCALAR"
		},
		{
			"bufferView":4,
			"componentType":5126,
			"count":38,
			"max":[
				0.4805167615413666,
				0.8588572144508362,
				0.774061918258667
			],
			"min":[
				-0.4722679555416107,
				-0.6793243885040283,
				-0.774061918258667
			],
			"type":"VEC3"
		},
		{
			"bufferView":5,
			"componentType":5126,
			"count":38,
			"type":"VEC3"
		},
		{
			"bufferView":6,
			"componentType":5126,
			"count":38,
			"type":"VEC2"
		},
		{
			"bufferView":7,
			"componentType":5123,
			"count":108,
			"type":"SCALAR"
		},
		{
			"bufferView":8,
			"componentType":5126,
			"count":240,
			"max":[
				0.6433988809585571,
				2.0747036933898926,
				0.9525212049484253
			],
			"min":[
				-0.5365345478057861,
				-0.8648364543914795,
				-0.9525212049484253
			],
			"type":"VEC3"
		},
		{
			"bufferView":9,
			"componentType":5126,
			"count":240,
			"type":"VEC3"
		},
		{
			"bufferView":10,
			"componentType":5126,
			"count":240,
			"type":"VEC2"
		},
		{
			"bufferView":11,
			"componentType":5123,
			"count":900,
			"type":"SCALAR"
		},
		{
			"bufferView":12,
			"componentType":5126,
			"count":24,
			"max":[
				0.21711763739585876,
				-0.8648364543914795,
				0.3920472264289856
			],
			"min":[
				-0.14697673916816711,
				-1.675072431564331,
				0.027952834963798523
			],
			"type":"VEC3"
		},
		{
			"bufferView":13,
			"componentType":5126,
			"count":24,
			"type":"VEC3"
		},
		{
			"bufferView":14,
			"componentType":5126,
			"count":24,
			"type":"VEC2"
		},
		{
			"bufferView":15,
			"componentType":5123,
			"count":72,
			"type":"SCALAR"
		},
		{
			"bufferView":16,
			"componentType":5126,
			"count":24,
			"max":[
				0.21711763739585876,
				-0.8648364543914795,
				-0.027952805161476135
			],
			"min":[
				-0.14697673916816711,
				-1.675072431564331,
				-0.3920471668243408
			],
			"type":"VEC3"
		},
		{
			"bufferView":17,
			"componentType":5126,
			"count":24,
			"type":"VEC3"
		},
		{
			"bufferView":18,
			"componentType":5126,
			"count":24,
			"type":"VEC2"
		},
		{
			"bufferView":19,
			"componentType":5126,
			"count":34,
			"max":[
				0.40382125973701477,
				1.822527527809143,
				0.7755424380302429
			],
			"min":[
				0.20443901419639587,
				1.6225274801254272,
				0.6846707463264465
			],
			"type":"VEC3"
		},
		{
			"bufferView":20,
			"componentType":5126,
			"count":34,
			"type":"VEC3"
		},
		{
			"bufferView":21,
			"componentType":5126,
			"count":34,
			"type":"VEC2"
		},
		{
			"bufferView":22,
			"componentType":5123,
			"count":84,
			"type":"SCALAR"
		},
		{
			"bufferView":23,
			"componentType":5126,
			"count":34,
			"max":[
				0.6753681898117065,
				1.9363782405853271,
				0.7085133194923401
			],
			"min":[
				0.3573882281780243,
				1.5363781452178955,
				0.37624233961105347
			],
			"type":"VEC3"
		},
		{
			"bufferView":24,
			"componentType":5126,
			"count":34,
			"type":"VEC3"
		},
		{
			"bufferView":25,
			"componentType":5126,
			"count":34,
			"type":"VEC2"
		},
		{
			"bufferView":26,
			"componentType":5123,
			"count":84,
			"type":"SCALAR"
		},
		{
			"bufferView":27,
			"componentType":5126,
			"count":53,
			"max":[
				1.0790743827819824,
				2.330199956893921,
				0.7808746099472046
			],
			"min":[
				-0.7928734421730042,
				1.3281588554382324,
				-0.8838478922843933
			],
			"type":"VEC3"
		},
		{
			"bufferView":28,
			"componentType":5126,
			"count":53,
			"type":"VEC3"
		},
		{
			"bufferView":29,
			"componentType":5126,
			"count":53,
			"type":"VEC2"
		},
		{
			"bufferView":30,
			"componentType":5123,
			"count":204,
			"type":"SCALAR"
		},
		{
			"bufferView":31,
			"componentType":5126,
			"count":64,
			"max":[
				0.6527904272079468,
				2.093336343765259,
				0.5814595818519592
			],
			"min":[
				-0.6935439705848694,
				0.7769908308982849,
				-0.5814595818519592
			],
			"type":"VEC3"
		},
		{
			"bufferView":32,
			"componentType":5126,
			"count":64,
			"type":"VEC3"
		},
		{
			"bufferView":33,
			"componentType":5126,
			"count":64,
			"type":"VEC2"
		},
		{
			"bufferView":34,
			"componentType":5123,
			"count":240,
			"type":"SCALAR"
		}
	],
	"bufferViews":[
		{
			"buffer":0,
			"byteLength":900,
			"byteOffset":0,
			"target":34962
		},
		{
			"buffer":0,
			"byteLength":900,
			"byteOffset":900,
			"target":34962
		},
		{
			"buffer":0,
			"byteLength":600,
			"byteOffset":1800,
			"target":34962
		},
		{
			"buffer":0,
			"byteLength":624,
			"byteOffset":2400,
			"target":34963
		},
		{
			"buffer":0,
			"byteLength":456,
			"byteOffset":3024,
			"target":34962
		},
		{
			"buffer":0,
			"byteLength":456,
			"byteOffset":3480,
			"target":34962
		},
		{
			"buffer":0,
			"byteLength":304,
			"byteOffset":3936,
			"target":34962
		},
		{
			"buffer":0,
			"byteLength":216,
			"byteOffset":4240,
			"target":34963
		},
		{
			"buffer":0,
			"byteLength":2880,
			"byteOffset":4456,
			"target":34962
		},
		{
			"buffer":0,
			"byteLength":2880,
			"byteOffset":7336,
			"target":34962
		},
		{
			"buffer":0,
			"byteLength":1920,
			"byteOffset":10216,
			"target":34962
		},
		{
			"buffer":0,
			"byteLength":1800,
			"byteOffset":12136,
			"target":34963
		},
		{
			"buffer":0,
			"byteLength":288,
			"byteOffset":13936,
			"target":34962
		},
		{
			"buffer":0,
			"byteLength":288,
			"byteOffset":14224,
			"target":34962
		},
		{
			"buffer":0,
			"byteLength":192,
			"byteOffset":14512,
			"target":34962
		},
		{
			"buffer":0,
			"byteLength":144,
			"byteOffset":14704,
			"target":34963
		},
		{
			"buffer":0,
			"byteLength":288,
			"byteOffset":14848,
			"target":34962
		},
		{
			"buffer":0,
			"byteLength":288,
			"byteOffset":15136,
			"target":34962
		},
		{
			"buffer":0,
			"byteLength":192,
			"byteOffset":15424,
			"target":34962
		},
		{
			"buffer":0,
			"byteLength":408,
			"byteOffset":15616,
			"target":34962
		},
		{
			"buffer":0,
			"byteLength":408,
			"byteOffset":16024,
			"target":34962
		},
		{
			"buffer":0,
			"byteLength":272,
			"byteOffset":16432,
			"target":34962
		},
		{
			"buffer":0,
			"byteLength":168,
			"byteOffset":16704,
			"target":34963
		},
		{
			"buffer":0,
			"byteLength":408,
			"byteOffset":16872,
			"target":34962
		},
		{
			"buffer":0,
			"byteLength":408,
			"byteOffset":17280,
			"target":34962
		},
		{
			"buffer":0,
			"byteLength":272,
			"byteOffset":17688,
			"target":34962
		},
		{
			"buffer":0,
			"byteLength":168,
			"byteOffset":17960,
			"target":34963
		},
		{
			"buffer":0,
			"byteLength":636,
			"byteOffset":18128,
			"target":34962
		},
		{
			"buffer":0,
			"byteLength":636,
			"byteOffset":18764,
			"target":34962
		},
		{
			"buffer":0,
			"byteLength":424,
			"byteOffset":19400,
			"target":34962
		},
		{
			"buffer":0,
			"byteLength":408,
			"byteOffset":19824,
			"target":34963
		},
		{
			"buffer":0,
			"byteLength":768,
			"byteOffset":20232,
			"target":34962
		},
		{
			"buffer":0,
			"byteLength":768,
			"byteOffset":21000,
			"target":34962
		},
		{
			"buffer":0,
			"byteLength":512,
			"byteOffset":21768,
			"target":34962
		},
		{
			"buffer":0,
			"byteLength":480,
			"byteOffset":22280,
			"target":34963
		}
	],
	"samplers":[
		{
			"magFilter":9729,
			"minFilter":9987
		}
	],
	"buffers":[
		{
			"byteLength":22760,
			"uri":"cute.bin"
		}
	]
}
