{
	"asset":{
		"generator":"Khronos glTF Blender I/O v5.0.21",
		"version":"2.0"
	},
	"scene":0,
	"scenes":[
		{
			"name":"Scene",
			"nodes":[
				0,
				1,
				2,
				3,
				4,
				5,
				6,
				7,
				8,
				9,
				10
			]
		}
	],
	"nodes":[
		{
			"mesh":0,
			"name":"neck.001",
			"rotation":[
				0,
				0.3826834261417389,
				0,
				0.9238795638084412
			],
			"scale":[
				0.11999998986721039,
				0.23999999463558197,
				0.11999998986721039
			],
			"translation":[
				0,
				2.5,
				0
			]
		},
		{
			"mesh":1,
			"name":"leg.006",
			"scale":[
				0.19999998807907104,
				1,
				0.19999998807907104
			],
			"translation":[
				0,
				0.8038461804389954,
				0.21000002324581146
			]
		},
		{
			"mesh":2,
			"name":"leg.007",
			"scale":[
				0.19999998807907104,
				1,
				0.19999998807907104
			],
			"translation":[
				0,
				0.8038461804389954,
				-0.20999999344348907
			]
		},
		{
			"mesh":3,
			"name":"HEADLOWPOLY.002",
			"scale":[
				0.800000011920929,
				0.800000011920929,
				0.800000011920929
			],
			"translation":[
				0,
				3.1000001430511475,
				0
			]
		},
		{
			"mesh":4,
			"name":"arm.004",
			"scale":[
				0.19999998807907104,
				0.7999999523162842,
				0.19999998807907104
			],
			"translation":[
				0,
				1.8199999332427979,
				0.6700001358985901
			]
		},
		{
			"mesh":5,
			"name":"arm.005",
			"rotation":[
				0,
				-1,
				0,
				1.6292069915380125e-07
			],
			"scale":[
				0.19999998807907104,
				0.7999999523162842,
				0.19999998807907104
			],
			"translation":[
				0,
				1.8299999237060547,
				-0.6700001358985901
			]
		},
		{
			"mesh":6,
			"name":"Cube.001",
			"scale":[
				0.6000000238418579,
				0.6000000238418579,
				0.6000000238418579
			],
			"translation":[
				0,
				1.8000000715255737,
				0
			]
		},
		{
			"mesh":7,
			"name":"Sphere.003",
			"scale":[
				0.19999998807907104,
				0.19999998807907104,
				0.19999998807907104
			],
			"translation":[
				0,
				2.200000047683716,
				0.4000000059604645
			]
		},
		{
			"mesh":8,
			"name":"Sphere.004",
			"scale":[
				0.19999998807907104,
				0.19999998807907104,
				0.19999998807907104
			],
			"translation":[
				0,
				2.200000047683716,
				-0.4000000059604645
			]
		},
		{
			"mesh":9,
			"name":"Cylinder",
			"scale":[
				0.48000001907348633,
				0.36000001430511475,
				0.6000000238418579
			],
			"translation":[
				0,
				1.100000023841858,
				0
			]
		},
		{
			"mesh":10,
			"name":"Cylinder.001",
			"translation":[
				0.050000011920928955,
				1.4600002765655518,
				0
			]
		}
	],
	"materials":[
		{
			"doubleSided":true,
			"name":"newskinhell",
			"pbrMetallicRoughness":{
				"baseColorFactor":[
					0.8000074625015259,
					0.06668063998222351,
					0.07741866260766983,
					1
				],
				"metallicFactor":0,
				"roughnessFactor":0.5
			}
		},
		{
			"doubleSided":true,
			"name":"newskinhell.003",
			"pbrMetallicRoughness":{
				"baseColorFactor":[
					0.8000074625015259,
					0.06668063998222351,
					0.07741866260766983,
					1
				],
				"metallicFactor":0,
				"roughnessFactor":0.5
			}
		},
		{
			"doubleSided":true,
			"name":"newskinhell.001",
			"pbrMetallicRoughness":{
				"baseColorFactor":[
					0.8000074625015259,
					0.06668063998222351,
					0.07741866260766983,
					1
				],
				"metallicFactor":0,
				"roughnessFactor":0.5
			}
		},
		{
			"doubleSided":true,
			"name":"pantsu",
			"pbrMetallicRoughness":{
				"baseColorFactor":[
					0.18590548634529114,
					0.08891548216342926,
					0.0412275567650795,
					1
				],
				"metallicFactor":0
			}
		},
		{
			"doubleSided":true,
			"name":"pantsbelt",
			"pbrMetallicRoughness":{
				"baseColorFactor":[
					0.0689258947968483,
					0.03761305287480354,
					0.02668348327279091,
					1
				],
				"metallicFactor":0
			}
		}
	],
	"meshes":[
		{
			"name":"Cube.014",
			"primitives":[
				{
					"attributes":{
						"POSITION":0,
						"NORMAL":1,
						"TEXCOORD_0":2
					},
					"indices":3,
					"material":0
				}
			]
		},
		{
			"name":"Cube.013",
			"primitives":[
				{
					"attributes":{
						"POSITION":4,
						"NORMAL":5,
						"TEXCOORD_0":6
					},
					"indices":7,
					"material":0
				}
			]
		},
		{
			"name":"Cube.025",
			"primitives":[
				{
					"attributes":{
						"POSITION":8,
						"NORMAL":9,
						"TEXCOORD_0":10
					},
					"indices":7,
					"material":0
				}
			]
		},
		{
			"name":"Cube.015",
			"primitives":[
				{
					"attributes":{
						"POSITION":11,
						"NORMAL":12,
						"TEXCOORD_0":13
					},
					"indices":14,
					"material":0
				},
				{
					"attributes":{
						"POSITION":15,
						"NORMAL":16,
						"TEXCOORD_0":17
					},
					"indices":18,
					"material":1
				}
			]
		},
		{
			"name":"Cube.024",
			"primitives":[
				{
					"attributes":{
						"POSITION":19,
						"NORMAL":20,
						"TEXCOORD_0":21
					},
					"indices":7,
					"material":0
				}
			]
		},
		{
			"name":"Cube.023",
			"primitives":[
				{
					"attributes":{
						"POSITION":22,
						"NORMAL":23,
						"TEXCOORD_0":24
					},
					"indices":7,
					"material":0
				}
			]
		},
		{
			"name":"Cube.027",
			"primitives":[
				{
					"attributes":{
						"POSITION":25,
						"NORMAL":26,
						"TEXCOORD_0":27
					},
					"indices":28,
					"material":0
				}
			]
		},
		{
			"name":"Sphere.001",
			"primitives":[
				{
					"attributes":{
						"POSITION":29,
						"NORMAL":30,
						"TEXCOORD_0":31
					},
					"indices":32,
					"material":0
				}
			]
		},
		{
			"name":"Sphere.002",
			"primitives":[
				{
					"attributes":{
						"POSITION":33,
						"NORMAL":34,
						"TEXCOORD_0":35
					},
					"indices":32,
					"material":2
				}
			]
		},
		{
			"name":"Cylinder",
			"primitives":[
				{
					"attributes":{
						"POSITION":36,
						"NORMAL":37,
						"TEXCOORD_0":38
					},
					"indices":39,
					"material":3
				}
			]
		},
		{
			"name":"Cylinder.004",
			"primitives":[
				{
					"attributes":{
						"POSITION":40,
						"NORMAL":41,
						"TEXCOORD_0":42
					},
					"indices":43,
					"material":4
				}
			]
		}
	],
	"accessors":[
		{
			"bufferView":0,
			"componentType":5126,
			"count":24,
			"max":[
				1.6000001430511475,
				1,
				1.6000001430511475
			],
			"min":[
				-1.6000001430511475,
				-1,
				-1.6000001430511475
			],
			"type":"VEC3"
		},
		{
			"bufferView":1,
			"componentType":5126,
			"count":24,
			"type":"VEC3"
		},
		{
			"bufferView":2,
			"componentType":5126,
			"count":24,
			"type":"VEC2"
		},
		{
			"bufferView":3,
			"componentType":5123,
			"count":84,
			"type":"SCALAR"
		},
		{
			"bufferView":4,
			"componentType":5126,
			"count":39,
			"max":[
				1.1596019268035889,
				0.8711289763450623,
				1.1596019268035889
			],
			"min":[
				-1.1596019268035889,
				-0.814082145690918,
				-1.1596018075942993
			],
			"type":"VEC3"
		},
		{
			"bufferView":5,
			"componentType":5126,
			"count":39,
			"type":"VEC3"
		},
		{
			"bufferView":6,
			"componentType":5126,
			"count":39,
			"type":"VEC2"
		},
		{
			"bufferView":7,
			"componentType":5123,
			"count":144,
			"type":"SCALAR"
		},
		{
			"bufferView":8,
			"componentType":5126,
			"count":39,
			"max":[
				1.1596019268035889,
				0.8711289763450623,
				1.1596019268035889
			],
			"min":[
				-1.1596019268035889,
				-0.814082145690918,
				-1.1596018075942993
			],
			"type":"VEC3"
		},
		{
			"bufferView":9,
			"componentType":5126,
			"count":39,
			"type":"VEC3"
		},
		{
			"bufferView":10,
			"componentType":5126,
			"count":39,
			"type":"VEC2"
		},
		{
			"bufferView":11,
			"componentType":5126,
			"count":130,
			"max":[
				0.760410487651825,
				0.7994248270988464,
				0.8749999403953552
			],
			"min":[
				-0.7145062685012817,
				-0.7710757255554199,
				-0.6429073810577393
			],
			"type":"VEC3"
		},
		{
			"bufferView":12,
			"componentType":5126,
			"count":130,
			"type":"VEC3"
		},
		{
			"bufferView":13,
			"componentType":5126,
			"count":130,
			"type":"VEC2"
		},
		{
			"bufferView":14,
			"componentType":5123,
			"count":444,
			"type":"SCALAR"
		},
		{
			"bufferView":15,
			"componentType":5126,
			"count":40,
			"max":[
				0.18118619918823242,
				0.05618596076965332,
				-0.3750000596046448
			],
			"min":[
				-0.011391110718250275,
				-0.4369117021560669,
				-0.8750000596046448
			],
			"type":"VEC3"
		},
		{
			"bufferView":16,
			"componentType":5126,
			"count":40,
			"type":"VEC3"
		},
		{
			"bufferView":17,
			"componentType":5126,
			"count":40,
			"type":"VEC2"
		},
		{
			"bufferView":18,
			"componentType":5123,
			"count":60,
			"type":"SCALAR"
		},
		{
			"bufferView":19,
			"componentType":5126,
			"count":39,
			"max":[
				0.6400001049041748,
				0.4434049725532532,
				1.2626054286956787
			],
			"min":[
				-0.6400001049041748,
				-0.4434051513671875,
				-1.2626056671142578
			],
			"type":"VEC3"
		},
		{
			"bufferView":20,
			"componentType":5126,
			"count":39,
			"type":"VEC3"
		},
		{
			"bufferView":21,
			"componentType":5126,
			"count":39,
			"type":"VEC2"
		},
		{
			"bufferView":22,
			"componentType":5126,
			"count":39,
			"max":[
				0.6400001049041748,
				0.4434049725532532,
				1.2626054286956787
			],
			"min":[
				-0.6400001049041748,
				-0.4434051513671875,
				-1.2626056671142578
			],
			"type":"VEC3"
		},
		{
			"bufferView":23,
			"componentType":5126,
			"count":39,
			"type":"VEC3"
		},
		{
			"bufferView":24,
			"componentType":5126,
			"count":39,
			"type":"VEC2"
		},
		{
			"bufferView":25,
			"componentType":5126,
			"count":39,
			"max":[
				0.8395062685012817,
				1.172839641571045,
				0.8395062685012817
			],
			"min":[
				-0.5061729550361633,
				-1.0061728954315186,
				-0.8395062685012817
			],
			"type":"VEC3"
		},
		{
			"bufferView":26,
			"componentType":5126,
			"count":39,
			"type":"VEC3"
		},
		{
			"bufferView":27,
			"componentType":5126,
			"count":39,
			"type":"VEC2"
		},
		{
			"bufferView":28,
			"componentType":5123,
			"count":144,
			"type":"SCALAR"
		},
		{
			"bufferView":29,
			"componentType":5126,
			"count":61,
			"max":[
				0.9999999403953552,
				1,
				0.9999998807907104
			],
			"min":[
				-0.9999998807907104,
				-1,
				-1
			],
			"type":"VEC3"
		},
		{
			"bufferView":30,
			"componentType":5126,
			"count":61,
			"type":"VEC3"
		},
		{
			"bufferView":31,
			"componentType":5126,
			"count":61,
			"type":"VEC2"
		},
		{
			"bufferView":32,
			"componentType":5123,
			"count":240,
			"type":"SCALAR"
		},
		{
			"bufferView":33,
			"componentType":5126,
			"count":61,
			"max":[
				0.9999999403953552,
				1,
				0.9999998807907104
			],
			"min":[
				-0.9999998807907104,
				-1,
				-1
			],
			"type":"VEC3"
		},
		{
			"bufferView":34,
			"componentType":5126,
			"count":61,
			"type":"VEC3"
		},
		{
			"bufferView":35,
			"componentType":5126,
			"count":61,
			"type":"VEC2"
		},
		{
			"bufferView":36,
			"componentType":5126,
			"count":57,
			"max":[
				0.8638941049575806,
				1.0000001192092896,
				0.9172598123550415
			],
			"min":[
				-0.6178586483001709,
				-1.8333332538604736,
				-0.9172598123550415
			],
			"type":"VEC3"
		},
		{
			"bufferView":37,
			"componentType":5126,
			"count":57,
			"type":"VEC3"
		},
		{
			"bufferView":38,
			"componentType":5126,
			"count":57,
			"type":"VEC2"
		},
		{
			"bufferView":39,
			"componentType":5123,
			"count":192,
			"type":"SCALAR"
		},
		{
			"bufferView":40,
			"componentType":5126,
			"count":74,
			"max":[
				0.4455527067184448,
				0.09999978542327881,
				0.5676640868186951
			],
			"min":[
				-0.4171348214149475,
				-0.10000026226043701,
				-0.5676640868186951
			],
			"type":"VEC3"
		},
		{
			"bufferView":41,
			"componentType":5126,
			"count":74,
			"type":"VEC3"
		},
		{
			"bufferView":42,
			"componentType":5126,
			"count":74,
			"type":"VEC2"
		},
		{
			"bufferView":43,
			"componentType":5123,
			"count":276,
			"type":"SCALAR"
		}
	],
	"bufferViews":[
		{
			"buffer":0,
			"byteLength":288,
			"byteOffset":0,
			"target":34962
		},
		{
			"buffer":0,
			"byteLength":288,
			"byteOffset":288,
			"target":34962
		},
		{
			"buffer":0,
			"byteLength":192,
			"byteOffset":576,
			"target":34962
		},
		{
			"buffer":0,
			"byteLength":168,
			"byteOffset":768,
			"target":34963
		},
		{
			"buffer":0,
			"byteLength":468,
			"byteOffset":936,
			"target":34962
		},
		{
			"buffer":0,
			"byteLength":468,
			"byteOffset":1404,
			"target":34962
		},
		{
			"buffer":0,
			"byteLength":312,
			"byteOffset":1872,
			"target":34962
		},
		{
			"buffer":0,
			"byteLength":288,
			"byteOffset":2184,
			"target":34963
		},
		{
			"buffer":0,
			"byteLength":468,
			"byteOffset":2472,
			"target":34962
		},
		{
			"buffer":0,
			"byteLength":468,
			"byteOffset":2940,
			"target":34962
		},
		{
			"buffer":0,
			"byteLength":312,
			"byteOffset":3408,
			"target":34962
		},
		{
			"buffer":0,
			"byteLength":1560,
			"byteOffset":3720,
			"target":34962
		},
		{
			"buffer":0,
			"byteLength":1560,
			"byteOffset":5280,
			"target":34962
		},
		{
			"buffer":0,
			"byteLength":1040,
			"byteOffset":6840,
			"target":34962
		},
		{
			"buffer":0,
			"byteLength":888,
			"byteOffset":7880,
			"target":34963
		},
		{
			"buffer":0,
			"byteLength":480,
			"byteOffset":8768,
			"target":34962
		},
		{
			"buffer":0,
			"byteLength":480,
			"byteOffset":9248,
			"target":34962
		},
		{
			"buffer":0,
			"byteLength":320,
			"byteOffset":9728,
			"target":34962
		},
		{
			"buffer":0,
			"byteLength":120,
			"byteOffset":10048,
			"target":34963
		},
		{
			"buffer":0,
			"byteLength":468,
			"byteOffset":10168,
			"target":34962
		},
		{
			"buffer":0,
			"byteLength":468,
			"byteOffset":10636,
			"target":34962
		},
		{
			"buffer":0,
			"byteLength":312,
			"byteOffset":11104,
			"target":34962
		},
		{
			"buffer":0,
			"byteLength":468,
			"byteOffset":11416,
			"target":34962
		},
		{
			"buffer":0,
			"byteLength":468,
			"byteOffset":11884,
			"target":34962
		},
		{
			"buffer":0,
			"byteLength":312,
			"byteOffset":12352,
			"target":34962
		},
		{
			"buffer":0,
			"byteLength":468,
			"byteOffset":12664,
			"target":34962
		},
		{
			"buffer":0,
			"byteLength":468,
			"byteOffset":13132,
			"target":34962
		},
		{
			"buffer":0,
			"byteLength":312,
			"byteOffset":13600,
			"target":34962
		},
		{
			"buffer":0,
			"byteLength":288,
			"byteOffset":13912,
			"target":34963
		},
		{
			"buffer":0,
			"byteLength":732,
			"byteOffset":14200,
			"target":34962
		},
		{
			"buffer":0,
			"byteLength":732,
			"byteOffset":14932,
			"target":34962
		},
		{
			"buffer":0,
			"byteLength":488,
			"byteOffset":15664,
			"target":34962
		},
		{
			"buffer":0,
			"byteLength":480,
			"byteOffset":16152,
			"target":34963
		},
		{
			"buffer":0,
			"byteLength":732,
			"byteOffset":16632,
			"target":34962
		},
		{
			"buffer":0,
			"byteLength":732,
			"byteOffset":17364,
			"target":34962
		},
		{
			"buffer":0,
			"byteLength":488,
			"byteOffset":18096,
			"target":34962
		},
		{
			"buffer":0,
			"byteLength":684,
			"byteOffset":18584,
			"target":34962
		},
		{
			"buffer":0,
			"byteLength":684,
			"byteOffset":19268,
			"target":34962
		},
		{
			"buffer":0,
			"byteLength":456,
			"byteOffset":19952,
			"target":34962
		},
		{
			"buffer":0,
			"byteLength":384,
			"byteOffset":20408,
			"target":34963
		},
		{
			"buffer":0,
			"byteLength":888,
			"byteOffset":20792,
			"target":34962
		},
		{
			"buffer":0,
			"byteLength":888,
			"byteOffset":21680,
			"target":34962
		},
		{
			"buffer":0,
			"byteLength":592,
			"byteOffset":22568,
			"target":34962
		},
		{
			"buffer":0,
			"byteLength":552,
			"byteOffset":23160,
			"target":34963
		}
	],
	"buffers":[
		{
			"byteLength":23712,
			"uri":"hellwarden.bin"
		}
	]
}
