{
	"asset":{
		"generator":"Khronos glTF Blender I/O v5.0.21",
		"version":"2.0"
	},
	"scene":0,
	"scenes":[
		{
			"name":"Scene",
			"nodes":[
				0,
				1,
				2,
				3,
				4,
				5,
				6,
				7
			]
		}
	],
	"nodes":[
		{
			"mesh":0,
			"name":"Sphere",
			"scale":[
				3,
				3,
				3
			],
			"translation":[
				0,
				27,
				0
			]
		},
		{
			"mesh":1,
			"name":"Sphere.001",
			"scale":[
				1.9800001382827759,
				1.9800001382827759,
				1.9800001382827759
			],
			"translation":[
				-5,
				25,
				-2
			]
		},
		{
			"mesh":2,
			"name":"Sphere.002",
			"scale":[
				1.9800001382827759,
				1.9800001382827759,
				1.9800001382827759
			],
			"translation":[
				5,
				25,
				-2
			]
		},
		{
			"name":"Empty",
			"rotation":[
				0.7071068286895752,
				0,
				0,
				0.7071068286895752
			],
			"scale":[
				0.6000000238418579,
				0.6000000238418579,
				0.6000000238418579
			],
			"translation":[
				0.057155609130859375,
				23.315643310546875,
				-3.773146629333496
			]
		},
		{
			"mesh":3,
			"name":"base",
			"scale":[
				10,
				1,
				10
			],
			"translation":[
				0,
				1,
				0
			]
		},
		{
			"mesh":4,
			"name":"castlecenter",
			"scale":[
				3,
				3,
				3
			],
			"translation":[
				0,
				24,
				0
			]
		},
		{
			"mesh":5,
			"name":"Cube.006",
			"scale":[
				2,
				2,
				2
			],
			"translation":[
				-5,
				23,
				-2
			]
		},
		{
			"mesh":6,
			"name":"Cube.007",
			"scale":[
				2,
				2,
				2
			],
			"translation":[
				5,
				23,
				-2
			]
		}
	],
	"materials":[
		{
			"doubleSided":true,
			"name":"blue",
			"pbrMetallicRoughness":{
				"baseColorFactor":[
					0,
					0.030494067817926407,
					0.8000074625015259,
					1
				],
				"metallicFactor":0,
				"roughnessFactor":0.5
			}
		},
		{
			"doubleSided":true,
			"name":"white",
			"pbrMetallicRoughness":{
				"metallicFactor":0,
				"roughnessFactor":0.5
			}
		},
		{
			"doubleSided":true,
			"name":"yellow",
			"pbrMetallicRoughness":{
				"baseColorFactor":[
					0.8000156879425049,
					0.7682604193687439,
					0,
					1
				],
				"metallicFactor":0,
				"roughnessFactor":0.5
			}
		},
		{
			"doubleSided":true,
			"name":"red",
			"pbrMetallicRoughness":{
				"baseColorFactor":[
					0.8000074625015259,
					0,
					0.0027319835498929024,
					1
				],
				"metallicFactor":0,
				"roughnessFactor":0.5
			}
		},
		{
			"doubleSided":true,
			"name":"stone",
			"pbrMetallicRoughness":{
				"baseColorFactor":[
					0.03389545902609825,
					0.02553717978298664,
					0.029068075120449066,
					1
				],
				"metallicFactor":0,
				"roughnessFactor":0.5
			}
		}
	],
	"meshes":[
		{
			"name":"Sphere",
			"primitives":[
				{
					"attributes":{
						"POSITION":0,
						"NORMAL":1,
						"TEXCOORD_0":2
					},
					"indices":3
				}
			]
		},
		{
			"name":"Sphere.001",
			"primitives":[
				{
					"attributes":{
						"POSITION":4,
						"NORMAL":5,
						"TEXCOORD_0":6
					},
					"indices":3
				}
			]
		},
		{
			"name":"Sphere.002",
			"primitives":[
				{
					"attributes":{
						"POSITION":7,
						"NORMAL":8,
						"TEXCOORD_0":9
					},
					"indices":3
				}
			]
		},
		{
			"name":"Cube.001",
			"primitives":[
				{
					"attributes":{
						"POSITION":10,
						"NORMAL":11,
						"TEXCOORD_0":12
					},
					"indices":13,
					"material":0
				},
				{
					"attributes":{
						"POSITION":14,
						"NORMAL":15,
						"TEXCOORD_0":16
					},
					"indices":17,
					"material":1
				},
				{
					"attributes":{
						"POSITION":18,
						"NORMAL":19,
						"TEXCOORD_0":20
					},
					"indices":21,
					"material":2
				},
				{
					"attributes":{
						"POSITION":22,
						"NORMAL":23,
						"TEXCOORD_0":24
					},
					"indices":25,
					"material":3
				},
				{
					"attributes":{
						"POSITION":26,
						"NORMAL":27,
						"TEXCOORD_0":28
					},
					"indices":29,
					"material":4
				}
			]
		},
		{
			"name":"Cube.006",
			"primitives":[
				{
					"attributes":{
						"POSITION":30,
						"NORMAL":31,
						"TEXCOORD_0":32
					},
					"indices":33
				}
			]
		},
		{
			"name":"Cube.007",
			"primitives":[
				{
					"attributes":{
						"POSITION":34,
						"NORMAL":35,
						"TEXCOORD_0":36
					},
					"indices":37
				}
			]
		},
		{
			"name":"Cube.008",
			"primitives":[
				{
					"attributes":{
						"POSITION":38,
						"NORMAL":39,
						"TEXCOORD_0":40
					},
					"indices":41
				}
			]
		}
	],
	"accessors":[
		{
			"bufferView":0,
			"componentType":5126,
			"count":296,
			"max":[
				0.9999997019767761,
				1.1203551292419434,
				0.9999993443489075
			],
			"min":[
				-0.9999990463256836,
				0,
				-1
			],
			"type":"VEC3"
		},
		{
			"bufferView":1,
			"componentType":5126,
			"count":296,
			"type":"VEC3"
		},
		{
			"bufferView":2,
			"componentType":5126,
			"count":296,
			"type":"VEC2"
		},
		{
			"bufferView":3,
			"componentType":5123,
			"count":1440,
			"type":"SCALAR"
		},
		{
			"bufferView":4,
			"componentType":5126,
			"count":296,
			"max":[
				0.9999997019767761,
				1.1203551292419434,
				0.9999993443489075
			],
			"min":[
				-0.9999990463256836,
				0,
				-1
			],
			"type":"VEC3"
		},
		{
			"bufferView":5,
			"componentType":5126,
			"count":296,
			"type":"VEC3"
		},
		{
			"bufferView":6,
			"componentType":5126,
			"count":296,
			"type":"VEC2"
		},
		{
			"bufferView":7,
			"componentType":5126,
			"count":296,
			"max":[
				0.9999997019767761,
				1.1203551292419434,
				0.9999993443489075
			],
			"min":[
				-0.9999990463256836,
				0,
				-1
			],
			"type":"VEC3"
		},
		{
			"bufferView":8,
			"componentType":5126,
			"count":296,
			"type":"VEC3"
		},
		{
			"bufferView":9,
			"componentType":5126,
			"count":296,
			"type":"VEC2"
		},
		{
			"bufferView":10,
			"componentType":5126,
			"count":104,
			"max":[
				1,
				20,
				1
			],
			"min":[
				-1,
				-1,
				-1
			],
			"type":"VEC3"
		},
		{
			"bufferView":11,
			"componentType":5126,
			"count":104,
			"type":"VEC3"
		},
		{
			"bufferView":12,
			"componentType":5126,
			"count":104,
			"type":"VEC2"
		},
		{
			"bufferView":13,
			"componentType":5123,
			"count":180,
			"type":"SCALAR"
		},
		{
			"bufferView":14,
			"componentType":5126,
			"count":24,
			"max":[
				-0.5999999642372131,
				20,
				0.8999999761581421
			],
			"min":[
				-1,
				-1,
				-0.8999999761581421
			],
			"type":"VEC3"
		},
		{
			"bufferView":15,
			"componentType":5126,
			"count":24,
			"type":"VEC3"
		},
		{
			"bufferView":16,
			"componentType":5126,
			"count":24,
			"type":"VEC2"
		},
		{
			"bufferView":17,
			"componentType":5123,
			"count":36,
			"type":"SCALAR"
		},
		{
			"bufferView":18,
			"componentType":5126,
			"count":80,
			"max":[
				1,
				20,
				1
			],
			"min":[
				-1,
				-1,
				-0.5999999642372131
			],
			"type":"VEC3"
		},
		{
			"bufferView":19,
			"componentType":5126,
			"count":80,
			"type":"VEC3"
		},
		{
			"bufferView":20,
			"componentType":5126,
			"count":80,
			"type":"VEC2"
		},
		{
			"bufferView":21,
			"componentType":5123,
			"count":126,
			"type":"SCALAR"
		},
		{
			"bufferView":22,
			"componentType":5126,
			"count":24,
			"max":[
				1,
				20,
				0.8999999761581421
			],
			"min":[
				0.5999999642372131,
				-1,
				-0.8999999761581421
			],
			"type":"VEC3"
		},
		{
			"bufferView":23,
			"componentType":5126,
			"count":24,
			"type":"VEC3"
		},
		{
			"bufferView":24,
			"componentType":5126,
			"count":24,
			"type":"VEC2"
		},
		{
			"bufferView":25,
			"componentType":5123,
			"count":36,
			"type":"SCALAR"
		},
		{
			"bufferView":26,
			"componentType":5126,
			"count":40,
			"max":[
				1,
				20,
				1
			],
			"min":[
				-1,
				1,
				-1
			],
			"type":"VEC3"
		},
		{
			"bufferView":27,
			"componentType":5126,
			"count":40,
			"type":"VEC3"
		},
		{
			"bufferView":28,
			"componentType":5126,
			"count":40,
			"type":"VEC2"
		},
		{
			"bufferView":29,
			"componentType":5123,
			"count":90,
			"type":"SCALAR"
		},
		{
			"bufferView":30,
			"componentType":5126,
			"count":93,
			"max":[
				1,
				1,
				1
			],
			"min":[
				-1,
				-1,
				-1
			],
			"type":"VEC3"
		},
		{
			"bufferView":31,
			"componentType":5126,
			"count":93,
			"type":"VEC3"
		},
		{
			"bufferView":32,
			"componentType":5126,
			"count":93,
			"type":"VEC2"
		},
		{
			"bufferView":33,
			"componentType":5123,
			"count":204,
			"type":"SCALAR"
		},
		{
			"bufferView":34,
			"componentType":5126,
			"count":99,
			"max":[
				1,
				1,
				1
			],
			"min":[
				-1,
				-1,
				-1
			],
			"type":"VEC3"
		},
		{
			"bufferView":35,
			"componentType":5126,
			"count":99,
			"type":"VEC3"
		},
		{
			"bufferView":36,
			"componentType":5126,
			"count":99,
			"type":"VEC2"
		},
		{
			"bufferView":37,
			"componentType":5123,
			"count":216,
			"type":"SCALAR"
		},
		{
			"bufferView":38,
			"componentType":5126,
			"count":99,
			"max":[
				1,
				1,
				1
			],
			"min":[
				-1,
				-1,
				-1
			],
			"type":"VEC3"
		},
		{
			"bufferView":39,
			"componentType":5126,
			"count":99,
			"type":"VEC3"
		},
		{
			"bufferView":40,
			"componentType":5126,
			"count":99,
			"type":"VEC2"
		},
		{
			"bufferView":41,
			"componentType":5123,
			"count":216,
			"type":"SCALAR"
		}
	],
	"bufferViews":[
		{
			"buffer":0,
			"byteLength":3552,
			"byteOffset":0,
			"target":34962
		},
		{
			"buffer":0,
			"byteLength":3552,
			"byteOffset":3552,
			"target":34962
		},
		{
			"buffer":0,
			"byteLength":2368,
			"byteOffset":7104,
			"target":34962
		},
		{
			"buffer":0,
			"byteLength":2880,
			"byteOffset":9472,
			"target":34963
		},
		{
			"buffer":0,
			"byteLength":3552,
			"byteOffset":12352,
			"target":34962
		},
		{
			"buffer":0,
			"byteLength":3552,
			"byteOffset":15904,
			"target":34962
		},
		{
			"buffer":0,
			"byteLength":2368,
			"byteOffset":19456,
			"target":34962
		},
		{
			"buffer":0,
			"byteLength":3552,
			"byteOffset":21824,
			"target":34962
		},
		{
			"buffer":0,
			"byteLength":3552,
			"byteOffset":25376,
			"target":34962
		},
		{
			"buffer":0,
			"byteLength":2368,
			"byteOffset":28928,
			"target":34962
		},
		{
			"buffer":0,
			"byteLength":1248,
			"byteOffset":31296,
			"target":34962
		},
		{
			"buffer":0,
			"byteLength":1248,
			"byteOffset":32544,
			"target":34962
		},
		{
			"buffer":0,
			"byteLength":832,
			"byteOffset":33792,
			"target":34962
		},
		{
			"buffer":0,
			"byteLength":360,
			"byteOffset":34624,
			"target":34963
		},
		{
			"buffer":0,
			"byteLength":288,
			"byteOffset":34984,
			"target":34962
		},
		{
			"buffer":0,
			"byteLength":288,
			"byteOffset":35272,
			"target":34962
		},
		{
			"buffer":0,
			"byteLength":192,
			"byteOffset":35560,
			"target":34962
		},
		{
			"buffer":0,
			"byteLength":72,
			"byteOffset":35752,
			"target":34963
		},
		{
			"buffer":0,
			"byteLength":960,
			"byteOffset":35824,
			"target":34962
		},
		{
			"buffer":0,
			"byteLength":960,
			"byteOffset":36784,
			"target":34962
		},
		{
			"buffer":0,
			"byteLength":640,
			"byteOffset":37744,
			"target":34962
		},
		{
			"buffer":0,
			"byteLength":252,
			"byteOffset":38384,
			"target":34963
		},
		{
			"buffer":0,
			"byteLength":288,
			"byteOffset":38636,
			"target":34962
		},
		{
			"buffer":0,
			"byteLength":288,
			"byteOffset":38924,
			"target":34962
		},
		{
			"buffer":0,
			"byteLength":192,
			"byteOffset":39212,
			"target":34962
		},
		{
			"buffer":0,
			"byteLength":72,
			"byteOffset":39404,
			"target":34963
		},
		{
			"buffer":0,
			"byteLength":480,
			"byteOffset":39476,
			"target":34962
		},
		{
			"buffer":0,
			"byteLength":480,
			"byteOffset":39956,
			"target":34962
		},
		{
			"buffer":0,
			"byteLength":320,
			"byteOffset":40436,
			"target":34962
		},
		{
			"buffer":0,
			"byteLength":180,
			"byteOffset":40756,
			"target":34963
		},
		{
			"buffer":0,
			"byteLength":1116,
			"byteOffset":40936,
			"target":34962
		},
		{
			"buffer":0,
			"byteLength":1116,
			"byteOffset":42052,
			"target":34962
		},
		{
			"buffer":0,
			"byteLength":744,
			"byteOffset":43168,
			"target":34962
		},
		{
			"buffer":0,
			"byteLength":408,
			"byteOffset":43912,
			"target":34963
		},
		{
			"buffer":0,
			"byteLength":1188,
			"byteOffset":44320,
			"target":34962
		},
		{
			"buffer":0,
			"byteLength":1188,
			"byteOffset":45508,
			"target":34962
		},
		{
			"buffer":0,
			"byteLength":792,
			"byteOffset":46696,
			"target":34962
		},
		{
			"buffer":0,
			"byteLength":432,
			"byteOffset":47488,
			"target":34963
		},
		{
			"buffer":0,
			"byteLength":1188,
			"byteOffset":47920,
			"target":34962
		},
		{
			"buffer":0,
			"byteLength":1188,
			"byteOffset":49108,
			"target":34962
		},
		{
			"buffer":0,
			"byteLength":792,
			"byteOffset":50296,
			"target":34962
		},
		{
			"buffer":0,
			"byteLength":432,
			"byteOffset":51088,
			"target":34963
		}
	],
	"buffers":[
		{
			"byteLength":51520,
			"uri":"mountmeru.bin"
		}
	]
}
