{
	"asset":{
		"generator":"Khronos glTF Blender I/O v5.0.21",
		"version":"2.0"
	},
	"scene":0,
	"scenes":[
		{
			"name":"Scene",
			"nodes":[
				0
			]
		}
	],
	"nodes":[
		{
			"mesh":0,
			"name":"clouds",
			"translation":[
				0.08368155360221863,
				21.994735717773438,
				0
			]
		}
	],
	"materials":[
		{
			"alphaMode":"BLEND",
			"doubleSided":true,
			"name":"clouds",
			"pbrMetallicRoughness":{
				"baseColorFactor":[
					0.5995941162109375,
					0.7348480820655823,
					0.8000074625015259,
					0.3129770755767822
				],
				"metallicFactor":0,
				"roughnessFactor":0.5
			}
		}
	],
	"meshes":[
		{
			"name":"Cube.009",
			"primitives":[
				{
					"attributes":{
						"POSITION":0,
						"NORMAL":1,
						"TEXCOORD_0":2
					},
					"indices":3,
					"material":0
				}
			]
		}
	],
	"accessors":[
		{
			"bufferView":0,
			"componentType":5126,
			"count":7884,
			"max":[
				22.898836135864258,
				3.2197859287261963,
				22.493989944458008
			],
			"min":[
				-21.685443878173828,
				-3.706941604614258,
				-23.570068359375
			],
			"type":"VEC3"
		},
		{
			"bufferView":1,
			"componentType":5126,
			"count":7884,
			"type":"VEC3"
		},
		{
			"bufferView":2,
			"componentType":5126,
			"count":7884,
			"type":"VEC2"
		},
		{
			"bufferView":3,
			"componentType":5123,
			"count":35640,
			"type":"SCALAR"
		}
	],
	"bufferViews":[
		{
			"buffer":0,
			"byteLength":94608,
			"byteOffset":0,
			"target":34962
		},
		{
			"buffer":0,
			"byteLength":94608,
			"byteOffset":94608,
			"target":34962
		},
		{
			"buffer":0,
			"byteLength":63072,
			"byteOffset":189216,
			"target":34962
		},
		{
			"buffer":0,
			"byteLength":71280,
			"byteOffset":252288,
			"target":34963
		}
	],
	"buffers":[
		{
			"byteLength":323568,
			"uri":"mountmeruclouds.bin"
		}
	]
}
