{
	"asset":{
		"generator":"Khronos glTF Blender I/O v5.0.21",
		"version":"2.0"
	},
	"scene":0,
	"scenes":[
		{
			"name":"Scene",
			"nodes":[
				0
			]
		}
	],
	"nodes":[
		{
			"mesh":0,
			"name":"Cylinder"
		}
	],
	"materials":[
		{
			"doubleSided":true,
			"name":"mat",
			"pbrMetallicRoughness":{
				"baseColorFactor":[
					0.3375169038772583,
					0.19536712765693665,
					0.4076300859451294,
					1
				],
				"roughnessFactor":0.3880000114440918
			}
		}
	],
	"meshes":[
		{
			"name":"Cylinder",
			"primitives":[
				{
					"attributes":{
						"POSITION":0,
						"NORMAL":1,
						"TEXCOORD_0":2
					},
					"indices":3,
					"material":0
				}
			]
		}
	],
	"accessors":[
		{
			"bufferView":0,
			"componentType":5126,
			"count":27998,
			"max":[
				1.3746159076690674,
				2.5900001525878906,
				1.3746166229248047
			],
			"min":[
				-1.3746157884597778,
				-0.12569330632686615,
				-1.3746159076690674
			],
			"type":"VEC3"
		},
		{
			"bufferView":1,
			"componentType":5126,
			"count":27998,
			"type":"VEC3"
		},
		{
			"bufferView":2,
			"componentType":5126,
			"count":27998,
			"type":"VEC2"
		},
		{
			"bufferView":3,
			"componentType":5123,
			"count":113754,
			"type":"SCALAR"
		}
	],
	"bufferViews":[
		{
			"buffer":0,
			"byteLength":335976,
			"byteOffset":0,
			"target":34962
		},
		{
			"buffer":0,
			"byteLength":335976,
			"byteOffset":335976,
			"target":34962
		},
		{
			"buffer":0,
			"byteLength":223984,
			"byteOffset":671952,
			"target":34962
		},
		{
			"buffer":0,
			"byteLength":227508,
			"byteOffset":895936,
			"target":34963
		}
	],
	"buffers":[
		{
			"byteLength":1123444,
			"uri":"ufo.bin"
		}
	]
}
